<?xml version="1.0" encoding="utf-8"?>
<!-- Generator: Adobe Illustrator 19.0.0, SVG Export Plug-In . SVG Version: 6.00 Build 0)  -->
<svg version="1.2" baseProfile="tiny" id="Layer_1" xmlns="http://www.w3.org/2000/svg" xmlns:xlink="http://www.w3.org/1999/xlink"
	 x="0px" y="0px" viewBox="0 0 1900 1900" xml:space="preserve">
<g id="XMLID_112_">
	<circle id="XMLID_111_" fill="#AE688F" cx="950" cy="950" r="600"/>
	<g id="brain" transform="translate(0,0)">
		<path id="XMLID_16_" fill="#FFFFFF" d="M933.6,737.2c-2.3,0-4.6,0-6.9,0.1c-1.8,0-3.6,0.1-5.4,0.2c-8.8,1.6-12.9,5.4-15.1,9.8
			c-2.4,4.9-2.3,11.4,0.4,17.3c2.7,5.8,7.7,10.6,14.7,12.4c7,1.8,16.5,0.9,29.1-7.2l10.1,15.8c-15.8,10.1-31.1,12.8-43.8,9.5
			c-12.7-3.2-22.1-12.1-27-22.6c-4.6-9.8-5.4-21.4-1-31.6c-42.9,6.9-81.8,23.4-111.6,46.6c-9.8,10.7-10.8,23.1-6.5,31.6
			c4.8,9.5,16.2,16.5,39,9.3l5.7,17.8c-28.6,9-52.1-0.6-61.3-18.6c-2.2-4.4-3.6-9.2-4.1-14.1c-4.8,5.7-9.2,11.7-13,17.8l0.1,0.1
			c-8.6,19.6-8.8,33.2-5.4,42c3.4,8.8,10.6,14.4,21.7,17.5c22.2,6.2,58.1-1.3,83.3-20.2c10.8-8.1,21.1-27.7,22-42.9
			c0.4-7.6-1.2-13.6-4.3-17.4s-8.3-6.7-18.8-6.6l-0.2-18.7c14.5-0.1,26.3,4.8,33.4,13.3c7.1,8.6,9.3,19.7,8.6,30.5
			c-1.3,21.6-12.6,44.2-29.4,56.8c-29.9,22.3-69.3,31.6-99.5,23.2c-14-3.9-26.4-12.4-32.8-25.5c-9.5,45.4,4.3,87.7,30.7,116.9
			c3.5,3.8,7.1,7.4,11,10.8c-2.8-7.9-4-16.1-3.7-24.1c0.5-14.3,6.1-28.3,17.2-38c9.1-7.9,21.8-12.5,36.8-12.5c1,0,2,0,3.1,0.1
			c2.3,0.1,4.8,0.3,7.2,0.6l-2.4,18.5c-15.6-2-25.7,1.5-32.4,7.4c-6.7,5.9-10.4,14.6-10.8,24.6c-0.7,20,12.1,43.4,39.7,50.2l0,0.2
			c27.2,5.2,57.5,0.4,88-18.2c0,0,0,0,0.1,0c6.3-4.5,9.8-8.8,11.4-12.6c2-4.4,1.9-8.3,0.5-12.4c-2.8-8.3-12.9-16.8-22.2-19.2
			c-15-3.8-24.5,1.4-29,7.7c-4.5,6.3-4.7,12.5,2.2,17.8l-11.5,14.8c-14.2-11-15.1-30.5-5.9-43.4c6.9-9.7,19-16.3,33.6-16.8
			c0.6,0,1.2,0,1.8,0c4.3,0,8.8,0.6,13.4,1.8c15.5,4,29.8,15.3,35.3,31.3c1.4,4.2,2.1,8.7,1.9,13.3c16.7-8.5,34.3-16.1,52.3-21.8
			c30.2-13.8,43.2-37.9,42.7-58.3c-0.5-20.5-13.2-37.7-42.4-40.6l1.8-18.6c36.7,3.6,58.5,29.8,59.2,58.8
			c0.4,16.8-5.8,34.4-18.2,49.3c16.1-1.8,32-1.5,47.5,1.6c-3.2-6.5-4.7-13.5-4.5-20.4c0.7-22,19.4-42.6,48.9-42.9c2,0,4,0.1,6,0.2
			l-1.5,18.6c-24.9-2-34.3,11.1-34.7,24.7c-0.4,13.4,8.5,28.4,34.2,30.4c28.3,0.3,48.6-15.1,58.5-37.9c13.3-30.5,7-76.3-34.8-118.2
			c-0.8-0.8-1.6-1.6-2.4-2.4c-0.4,3.8-1.4,7.4-2.8,10.8c-7.3,17.4-24.2,29.1-41.9,32.4c-24.3,4.5-44.3-5.3-53.5-20.4
			c-9.2-15.1-6.8-36.3,9.8-47.6l10.5,15.5c-8.9,6-9.3,14.2-4.3,22.3c5,8.1,16.2,15.2,34.2,11.8c11.3-2.1,23.9-11.3,28-21.3
			c2.1-5,2.5-9.9,0.4-15.5c-1.7-4.6-5.2-9.8-11.7-15.3l-0.2-0.2c-27.3-20.6-56.3-35.4-85.8-45.2c0,0,0,0.1,0.1,0.1
			c6.7,12.2,7.2,26.1,3.1,38.3c-8.2,24.5-34.1,43.8-66,42.8c-6.9-0.2-13.6,3.1-19.2,9.7c-5.6,6.5-9.7,16.1-10.7,26.3
			c-1.9,20.4,6.9,42.9,41.3,54l-5.8,17.8c-41.1-13.3-56.8-45.5-54.2-73.5c1.3-14,6.7-27,15.2-36.8c8.5-9.8,20.5-16.6,34-16.2
			c24,0.8,42.3-14.1,47.7-30.1c2.7-8,2.3-15.9-1.8-23.4c-4-7.3-11.8-14.4-25.9-19.7C967.4,738.5,950.3,737.1,933.6,737.2
			L933.6,737.2z M1034.8,989.1c-41.9,3.4-87.4,23.4-125.3,46.6c-56,34.2-114.9,26.7-156.7-4.3c16.4,58.8,74.7,70.8,135.5,55.9
			c6.1-2.3,12.1-6.5,17.2-12c7.1-7.6,12.2-17.5,13.8-25.6l18.3,3.6c-2.4,12.4-9.1,24.7-18.4,34.7c-8.9,9.6-20.6,17.3-34.1,19.4
			c-6.8,15.1-12.3,29.7-14.6,39.9c-3.5,16.1,14.2,22.2,22.2,6c19-38.7,45.9-73.2,79.4-103C998.2,1033.2,1020.5,1012,1034.8,989.1
			L1034.8,989.1z"/>
	</g>
</g>
<g id="XMLID_115_">
	<circle id="XMLID_121_" fill="#D3746A" cx="1437.4" cy="615.2" r="300"/>
	<g id="tongue" transform="translate(0,0)">
		<path id="XMLID_40_" fill="#FFFFFF" d="M1396.8,486.3c-36.8,7.1-66.4,25.6-93.1,48.2c28.2-2.9,62.7-4.8,89.1-5.8
			c15.4,4.4,32.5,8.2,44.7,8.2c12.2,0,29.3-3.9,44.7-8.2c26.3,1,60.9,3,89.1,5.8c-26.1-20.6-58.7-45.5-93.1-48.2
			c-15.8,2.3-29.1,11.8-40.7,20.7C1427.5,499.7,1408.6,486.1,1396.8,486.3L1396.8,486.3z M1398,541.1c-6.9,1.9-14,9.5-16.6,16.8
			c-9.4,26.8,0,57.8,10.3,88.4c9.3,27.8,27.8,40.4,45.7,40.4c17.9,0,36.5-12.6,45.7-40.4c10.2-30.7,19.7-61.6,10.3-88.4
			c-2.6-7.4-9.7-14.9-16.6-16.8c-12.8-1.2-22.7,7.8-34,10l-5.4,103.5l-5.4-103.5C1421.7,549.3,1406.6,539.1,1398,541.1L1398,541.1z
			 M1298.9,548.7c18,22,44.1,44.8,68.8,53.4c-1.2-17.9-2.1-35.1,3.4-49.3C1350.2,551.9,1321.1,550.5,1298.9,548.7z M1576,548.7
			c-22.2,1.8-51.3,3.2-72.2,4.1c5.3,15.8,5.6,35.4,3.4,49.3C1535.5,589.4,1557.9,571.5,1576,548.7z M1386.2,673.8
			c0,0-21.1,11.1-24.2,21.5c-1.4,4.6-0.4,11.6,3.7,14c4.2,2.4,10.7-0.2,14-3.7C1387.1,697.7,1386.2,673.8,1386.2,673.8z
			 M1488.6,673.8c0,0-0.9,23.9,6.5,31.7c3.3,3.5,9.8,6.2,14,3.7c4.2-2.4,5.1-9.4,3.7-14C1509.8,685,1488.6,673.8,1488.6,673.8z
			 M1437.4,703.2c0,0-12.7,20.2-10.2,30.7c1.1,4.7,5.4,10.2,10.2,10.2c4.8,0,9.1-5.5,10.2-10.2
			C1450.2,723.5,1437.4,703.2,1437.4,703.2z"/>
	</g>
</g>
<g id="XMLID_123_">
	<circle id="XMLID_118_" fill="#EC8946" cx="1531" cy="1096" r="300"/>
	<g id="nose" transform="translate(0,0)">
		<path id="XMLID_30_" fill="#FFFFFF" d="M1480.8,950.7c-4.4,66.4-5.1,136.1-29.9,173.1c-16,23.9-24.4,42.2-27.5,56.7
			c-3.1,14.5-0.5,25.7,5.5,33.3c12,15.1,33.8,14.6,42.8,14.4c3.2,0,5.8-2.6,5.7-5.8c0-2.4-1.5-4.5-3.7-5.4c2.1-0.7,3.9-1.6,5.4-2.7
			c2,1.4,3.9,3,6,4.7c10.7,9.1,23,22.4,43.4,22.2c20.4-0.2,35.8-13,48.9-22.3c2.2-1.6,4.4-3,6.4-4.3c1.5,0.8,3.2,1.5,5.1,2.1
			c-3.1,0.7-5,3.8-4.3,6.9c0.6,2.6,2.9,4.4,5.6,4.5c9,0.2,30.7,0.7,42.8-14.4c6-7.5,8.6-18.7,5.5-33.3
			c-3.1-14.5-11.4-32.8-27.5-56.7c-24.8-37-25.4-106.7-29.9-173.1h-11.5c4.4,66,3.4,137.1,31.8,179.5c15.6,23.2,23.2,40.4,25.8,52.7
			c2.6,12.2,0.5,19.1-3.2,23.7c-0.6,0.7-1.2,1.4-2,2c0.2-0.5,0.2-1.1,0.2-1.6c0-6.3-9.9-11.4-22.1-11.4l0,0c-10.2,0-19,3.6-21.4,8.6
			c-2.7,1.7-5.3,3.5-7.9,5.3c-13.6,9.6-26.9,20-42.3,20.2c-15.4,0.1-24.5-9.7-35.8-19.4c-3.4-3-7.1-5.9-11.2-8.3
			c-3.7-4-11.4-6.6-19.9-6.6c-12.2,0-22.1,5.2-22.1,11.7c0,0.3,0,0.7,0.1,1c-0.6-0.5-1.1-1.1-1.6-1.7c-3.7-4.6-5.8-11.4-3.2-23.7
			c2.6-12.2,10.2-29.5,25.8-52.7c28.4-42.4,27.5-113.5,31.8-179.5H1480.8L1480.8,950.7z"/>
	</g>
</g>
<g id="XMLID_125_">
	<circle id="XMLID_116_" fill="#999543" cx="1220.9" cy="1489.4" r="300"/>
	<g id="ear" transform="translate(0,0)">
		<path id="XMLID_20_" fill="#FFFFFF" d="M1231.8,1355.8c-1.3,0-2.5,0.1-3.8,0.2c-38.8,2.4-64.2,23-79.1,53.6
			c-14.6,30.1-18.2,70.2-11,110.4l1.1,1.1l-0.9,3.7c-2.2,9.1-0.7,20,2.7,29.4c3.5,9.4,9.3,17.1,13.2,19.7l3.2,2.1l-0.2,3.8
			c-0.9,14.1,4.4,24.9,11.8,32.4c7.4,7.5,17.1,11.2,23.4,10.8c6.6-0.4,10-2.4,13.6-6.4c3.6-4,7-10.3,10.9-18.1
			c7.9-15.6,18.5-37,43.6-55.7c40.5-30.3,53-78.7,44.8-118.8c-4.1-20.1-13.4-37.8-26.5-50.1c-11.5-10.7-25.8-17.4-43.1-18
			C1234.3,1355.8,1233.1,1355.8,1231.8,1355.8L1231.8,1355.8z M1227.4,1390.5c0.8,0,1.6,0,2.5,0c16.8,0.3,33.1,7.8,44.4,22.7
			c1.9,2.5,1.4,6.1-1.1,8.1s-6.1,1.4-8.1-1.1c-16.4-21.6-44.2-24.2-66.8-8c-11.7,8.4-21.9,22-27.7,41.2c8.3-8.8,17.9-17.3,28.5-22.7
			c6.3-3.2,13.2-5.3,20.3-5.4c2.4,0,4.7,0.2,7.1,0.7c9.6,1.9,18.8,8.1,27,19c1.9,2.5,1.4,6.2-1.1,8.1c-2.5,1.9-6.2,1.4-8.1-1.1l0,0
			c-7-9.3-13.7-13.4-20.1-14.7c-6.4-1.3-12.9,0.1-19.8,3.7c-13.8,7-27.8,22.5-38.1,35c-1.2,12-0.9,25.5,1.4,40.5
			c8.2,0.3,14.9,2.4,19.8,6.2c5.9,4.6,8.9,11.4,9.3,18.1c0.9,13.4-6.8,27.3-19.6,32.7c-2.9,1.2-6.3-0.2-7.5-3.1
			c-1.2-2.9,0.1-6.3,3-7.5c7.3-3.1,13.1-13.3,12.6-21.3c-0.3-4-1.7-7.2-4.9-9.7c-3.2-2.5-8.6-4.4-17.4-3.9c-2.9,0.2-5.5-1.9-6-4.8
			c-10.3-60,7.8-100.9,34.7-120.2C1202.6,1394.9,1215.1,1390.7,1227.4,1390.5L1227.4,1390.5z"/>
	</g>
</g>
<g id="XMLID_122_">
	<circle id="XMLID_120_" fill="#567A59" cx="681.6" cy="1489.4" r="300"/>
	<g id="eye" transform="translate(0,0)">
		<path id="XMLID_31_" fill="#FFFFFF" d="M681.6,1336.8c-75.2,0-137.7,54.5-150.3,126.1l-0.3,0.2l0.2,0.3
			c-0.9,5.4-1.6,10.9-1.9,16.5c3-2.6,6.1-5,9.1-7.4l0,0c93.7-74.2,195.7-71.7,286.3,0l0,0c3.1,2.4,6.1,4.9,9.2,7.4
			c-0.3-5.6-1-11.1-1.9-16.6l0.2-0.2c-0.1-0.1-0.2-0.1-0.3-0.2C819.3,1391.3,756.8,1336.8,681.6,1336.8L681.6,1336.8z M681.6,1348.8
			c64.8,0,119.3,43.7,135.6,103.3c-42.8-29.9-88.5-45.4-134.4-45.6c-46.1-0.3-92.6,14.7-136.8,45.6
			C562.4,1392.4,616.8,1348.8,681.6,1348.8L681.6,1348.8z M682.8,1430c-12.6-0.1-25.3,1.1-37.9,3.7c-18.1,11.9-30,32.4-30,55.8
			c0,23.5,12,44.1,30.3,56c12.4,2.4,24.9,3.6,37.3,3.5c11.9-0.1,23.8-1.2,35.6-3.5c18.2-11.9,30.2-32.5,30.2-55.9
			c0-23.3-11.9-43.8-29.9-55.7C706.6,1431.3,694.7,1430.1,682.8,1430L682.8,1430z M620.1,1440.4c-28.4,9.7-56.6,26.1-84.2,49.7
			c27.3,23.3,55.8,39.5,84.6,49c-11-13.5-17.6-30.8-17.6-49.6C602.9,1470.9,609.3,1453.8,620.1,1440.4L620.1,1440.4z M743.1,1440.4
			c10.7,13.5,17.2,30.5,17.2,49c0,18.7-6.6,36-17.6,49.5c29-9.5,57.5-25.8,84.6-48.9C800,1466.8,771.8,1450.2,743.1,1440.4
			L743.1,1440.4z M681.6,1451.5c4,0,7.8,0.6,11.5,1.8c-5.8,3-9.8,9-9.8,16c0,9.9,8,18,18,18c7.1,0,13.3-4.2,16.2-10.2
			c1.3,3.9,2.1,8.1,2.1,12.4c0,20.9-17,37.9-37.9,37.9c-20.9,0-37.9-17-37.9-37.9S660.7,1451.5,681.6,1451.5L681.6,1451.5z
			 M833.8,1500.2c-4.4,3.7-8.7,7.2-13.2,10.5c0,0.1,0,0.2,0,0.3c-44.1,35.4-90.9,53.4-137.9,53.7c-47,0.3-94.5-17.1-140.1-53.6
			c0-0.1,0-0.2,0-0.3c-4.4-3.3-8.8-6.8-13.2-10.5c5.6,79.2,71.7,141.8,152.2,141.8C762.2,1642.1,828.3,1579.4,833.8,1500.2
			L833.8,1500.2z M546.6,1529.2c44,32,90.2,47.8,136.2,47.5c45.8-0.3,91.2-16.5,133.8-47.5c-17.1,58.4-71,100.9-135,100.9
			C617.7,1630.1,563.8,1587.5,546.6,1529.2L546.6,1529.2z"/>
	</g>
</g>
<g id="XMLID_126_">
	<circle id="XMLID_119_" fill="#548B8E" cx="381.6" cy="1136" r="300"/>
	<g id="hand" transform="translate(0,0)">
		<path id="XMLID_3_" fill="#FFFFFF" d="M535.2,1059.2c0,0-25.9,54.6-32.9,82.6c-9.2,36.6,1.3,64.2-12,99.6
			c-23,41.6-24.6,48.3-108.7,48.2c-30.8,0-119.1-23.5-119.1-23.5c-12.2-3.1-34.5-1.3-34.5-14.9c0-13.6,15.9-23.5,30.1-23.5l55.7,4.9
			c13.5-0.8,27.7-8.8,28.1-26.5c-0.2-26.2-2.8-46.3-16.1-67.6l-51.6-80.6c-3.1-6.4-3.8-17.3,5.1-22.2c8.9-4.9,19.1,2.4,22.5,8.7
			l57.7,78.4c6.2,5.7,17.1,6.8,16.2-5.4l-25.5-116.7c-1.6-8.3,2.6-18.3,12.2-18.3c12.6,0,20.3,4.8,20.1,12.4l28,115.2
			c2.2,5.6,9.9,4.9,12-0.3l8-112c0.4-3.6,5.1-9.8,14-8.5c8.9,1.3,14.1,10.9,13.2,14.6l-2.6,110.7c1.8,9.8,9.5,11.2,15.5,5.8
			l39.2-70.1c2.4-5.9,11.7-7.1,17.1-4.8C531.9,1048.6,535.2,1053,535.2,1059.2L535.2,1059.2z"/>
	</g>
</g>
<g id="XMLID_124_">
	<circle id="XMLID_117_" fill="#688AAF" cx="454.3" cy="615.2" r="300"/>
	<g id="muscle" transform="translate(0,0)">
		<path id="XMLID_27_" fill="#FFFFFF" d="M396.6,463.5c-96.2,26-133.2,115.1-46.8,145.1h-0.7c0.4,0.1,0.8,0.1,1.2,0.2
			c5.8,2,12.1,3.7,18.9,5.1c32.2,12.6,55.5,43.3,57.4,73.2c-21.4,14.8-38.1,40.2-38.1,40.2l16.8,24.8L379,767h52.5
			c-25.9-25.9-7.5-55,23.1-55c31.1,0,47.3,30.8,23.1,55h51.9l-25.8-15l16.8-24.8c0,0-16.9-25.9-38.6-40.6
			c2.1-29.8,25.3-60.3,57.3-72.9c6.9-1.4,13.1-3.1,18.9-5.1c0.4-0.1,0.8-0.1,1.2-0.2h-0.7c86.4-30,49.4-119.1-46.8-145.1
			c-26.1,25.2,4.2,65.1,27.9,36.4c23.6,44.2,5.5,81.7-46.3,53.4c-7.6,15.7-21.9,26.5-38.8,26.5c-17.1,0-31.5-11-39-26.9
			c-52.3,29-70.7-8.6-47-53C392.5,528.5,422.7,488.7,396.6,463.5L396.6,463.5z M454.7,486.5c-17.5,0-32.9,17.6-32.9,40.7
			c0,23.1,15.3,40.3,32.9,40.3c17.5,0,32.8-17.2,32.8-40.3C487.6,504.1,472.3,486.5,454.7,486.5L454.7,486.5z"/>
	</g>
</g>
<g id="XMLID_113_">
	<circle id="XMLID_114_" fill="#5C5791" cx="950" cy="350" r="300"/>
	<g id="jump" transform="translate(0,0)">
		<path id="XMLID_23_" fill="#FFFFFF" d="M950,201.5c-43.4,0-71.4,27.8-84.7,62.6c-12.8,33.3-13.3,73.1-3.9,104.6l9.1-10.3
			c-6.5-27.8-5.2-62.2,5.6-90.2c12.2-31.8,35.4-55.2,74-55.2c38.5,0,61.8,23.4,74,55.2c10.8,28,12,62.4,5.6,90.2l9.1,10.3
			c9.4-31.6,8.9-71.4-3.9-104.6C1021.4,229.3,993.4,201.5,950,201.5z M950,260.9c-11.6,0-21.9,11.4-21.9,26.6
			c0,15.2,10.2,26.6,21.9,26.6s21.9-11.4,21.9-26.6C971.9,272.3,961.6,260.9,950,260.9z M934.2,321.2c-11.1,2.4-20,6.5-21.7,7.3
			l-47.7,53.8l5.3,10.6l55-44V453h19.2v-41h11.5v86.4H975V348.9l55,44l5.3-10.6l-47.7-53.8c-1.7-0.8-10.6-4.9-21.7-7.3
			c-4.7,2.8-10,4.5-15.8,4.5C944.2,325.7,938.9,324,934.2,321.2L934.2,321.2z"/>
	</g>
</g>
</svg>
